<svg width="256" height="256" viewBox="0 0 256 256" fill="none" xmlns="http://www.w3.org/2000/svg">
<path d="M217.6 12.8H38.4C17.2021 12.8229 0.0229167 30.0021 0 51.2V162.133C0.0229167 183.331 17.2021 200.51 38.4 200.533H50.2604L42.7521 238.079C42.4292 239.694 43.0646 241.348 44.3813 242.333C45.6979 243.319 47.4646 243.458 48.9208 242.692L129.054 200.533H217.6C238.798 200.51 255.977 183.331 256 162.133V51.2C255.977 30.0021 238.798 12.8229 217.6 12.8ZM247.467 162.133C247.448 178.621 234.088 191.981 217.6 192H128C127.306 192 126.625 192.169 126.013 192.492L52.8771 230.985L59.6479 197.121C59.9042 195.865 59.5833 194.56 58.7729 193.569C57.9625 192.575 56.7479 192 55.4667 192H38.4C21.9125 191.981 8.55208 178.621 8.53333 162.133V51.2C8.55208 34.7125 21.9125 21.3521 38.4 21.3333H217.6C234.088 21.3521 247.448 34.7125 247.467 51.2V162.133Z" fill="black"/>
<rect x="48" y="70" width="160" height="10" rx="5" fill="black"/>
</svg>
